<mxfile host="app.diagrams.net" modified="2023-12-08T00:52:15.403Z" agent="Mozilla/5.0 (Windows NT 10.0; Win64; x64) AppleWebKit/537.36 (KHTML, like Gecko) Chrome/119.0.0.0 Safari/537.36" etag="fHp3kAJM6P1YDeCw1Ghf" version="22.1.7" type="onedrive">
  <diagram name="Page-1" id="c7488fd3-1785-93aa-aadb-54a6760d102a">
    <mxGraphModel dx="1865" dy="1238" grid="1" gridSize="10" guides="1" tooltips="1" connect="1" arrows="1" fold="1" page="1" pageScale="1" pageWidth="1100" pageHeight="850" background="none" math="0" shadow="0">
      <root>
        <mxCell id="0" />
        <mxCell id="1" parent="0" />
        <mxCell id="2b4e8129b02d487f-1" value="Fluxograma&amp;nbsp;Requisições " style="swimlane;html=1;childLayout=stackLayout;horizontal=1;startSize=20;horizontalStack=0;rounded=0;shadow=0;labelBackgroundColor=none;strokeWidth=1;fontFamily=Verdana;fontSize=8;align=center;fillColor=#d80073;strokeColor=#A50040;fontColor=#ffffff;" parent="1" vertex="1">
          <mxGeometry x="-320" y="-830" width="1100" height="1030" as="geometry">
            <mxRectangle x="180" y="70" width="60" height="20" as="alternateBounds" />
          </mxGeometry>
        </mxCell>
        <mxCell id="2b4e8129b02d487f-2" value="Requisição do Usuário" style="swimlane;html=1;startSize=20;horizontal=0;fillColor=#a20025;fontColor=#ffffff;strokeColor=#6F0000;" parent="2b4e8129b02d487f-1" vertex="1">
          <mxGeometry y="20" width="1100" height="150" as="geometry" />
        </mxCell>
        <mxCell id="2b4e8129b02d487f-18" style="edgeStyle=orthogonalEdgeStyle;rounded=0;html=1;labelBackgroundColor=none;startArrow=none;startFill=0;startSize=5;endArrow=classicThin;endFill=1;endSize=5;jettySize=auto;orthogonalLoop=1;strokeWidth=1;fontFamily=Verdana;fontSize=8" parent="2b4e8129b02d487f-2" source="2b4e8129b02d487f-5" edge="1">
          <mxGeometry relative="1" as="geometry">
            <mxPoint x="89.99999999999989" y="75.00000000000006" as="targetPoint" />
          </mxGeometry>
        </mxCell>
        <mxCell id="2b4e8129b02d487f-5" value="" style="ellipse;whiteSpace=wrap;html=1;rounded=0;shadow=0;labelBackgroundColor=none;strokeWidth=1;fontFamily=Verdana;fontSize=8;align=center;fillColor=#008a00;strokeColor=#005700;fontColor=#ffffff;" parent="2b4e8129b02d487f-2" vertex="1">
          <mxGeometry x="40" y="60" width="30" height="30" as="geometry" />
        </mxCell>
        <mxCell id="vjjzR6SspAhX7g16NQRn-37" value="Realizar solicitação de requisito" style="rounded=1;whiteSpace=wrap;html=1;" parent="2b4e8129b02d487f-2" vertex="1">
          <mxGeometry x="90" y="45" width="120" height="60" as="geometry" />
        </mxCell>
        <mxCell id="ur2h0-PqVUXsRNQ7MQ-a-67" style="edgeStyle=orthogonalEdgeStyle;rounded=0;orthogonalLoop=1;jettySize=auto;html=1;entryX=0.5;entryY=1;entryDx=0;entryDy=0;" edge="1" parent="2b4e8129b02d487f-2" source="vjjzR6SspAhX7g16NQRn-81" target="vjjzR6SspAhX7g16NQRn-85">
          <mxGeometry relative="1" as="geometry" />
        </mxCell>
        <mxCell id="vjjzR6SspAhX7g16NQRn-81" value="Finaliza solicitação" style="rounded=1;whiteSpace=wrap;html=1;" parent="2b4e8129b02d487f-2" vertex="1">
          <mxGeometry x="930" y="60" width="120" height="60" as="geometry" />
        </mxCell>
        <mxCell id="vjjzR6SspAhX7g16NQRn-85" value="" style="ellipse;whiteSpace=wrap;html=1;rounded=0;shadow=0;labelBackgroundColor=none;strokeWidth=1;fontFamily=Verdana;fontSize=8;align=center;fillColor=#FFCCCC;strokeColor=#ff0000;fontColor=#ffffff;" parent="2b4e8129b02d487f-2" vertex="1">
          <mxGeometry x="975" y="15" width="30" height="30" as="geometry" />
        </mxCell>
        <mxCell id="vjjzR6SspAhX7g16NQRn-59" style="edgeStyle=orthogonalEdgeStyle;rounded=0;orthogonalLoop=1;jettySize=auto;html=1;exitX=0.5;exitY=1;exitDx=0;exitDy=0;entryX=0.5;entryY=0;entryDx=0;entryDy=0;" parent="2b4e8129b02d487f-1" source="vjjzR6SspAhX7g16NQRn-37" target="vjjzR6SspAhX7g16NQRn-58" edge="1">
          <mxGeometry relative="1" as="geometry" />
        </mxCell>
        <mxCell id="2b4e8129b02d487f-3" value="N1" style="swimlane;html=1;startSize=20;horizontal=0;fillColor=#6a00ff;fontColor=#ffffff;strokeColor=#3700CC;" parent="2b4e8129b02d487f-1" vertex="1">
          <mxGeometry y="170" width="1100" height="320" as="geometry" />
        </mxCell>
        <mxCell id="ur2h0-PqVUXsRNQ7MQ-a-5" style="edgeStyle=orthogonalEdgeStyle;rounded=0;orthogonalLoop=1;jettySize=auto;html=1;entryX=0.5;entryY=0;entryDx=0;entryDy=0;" edge="1" parent="2b4e8129b02d487f-3" source="vjjzR6SspAhX7g16NQRn-58" target="ur2h0-PqVUXsRNQ7MQ-a-3">
          <mxGeometry relative="1" as="geometry" />
        </mxCell>
        <mxCell id="vjjzR6SspAhX7g16NQRn-58" value="Receber solicitação" style="rounded=1;whiteSpace=wrap;html=1;" parent="2b4e8129b02d487f-3" vertex="1">
          <mxGeometry x="90" y="30" width="120" height="60" as="geometry" />
        </mxCell>
        <mxCell id="vjjzR6SspAhX7g16NQRn-79" value="Sim" style="text;html=1;strokeColor=none;fillColor=none;align=center;verticalAlign=middle;whiteSpace=wrap;rounded=0;" parent="2b4e8129b02d487f-3" vertex="1">
          <mxGeometry x="440" y="147.5" width="60" height="30" as="geometry" />
        </mxCell>
        <mxCell id="ur2h0-PqVUXsRNQ7MQ-a-23" style="edgeStyle=orthogonalEdgeStyle;rounded=0;orthogonalLoop=1;jettySize=auto;html=1;entryX=0.5;entryY=1;entryDx=0;entryDy=0;" edge="1" parent="2b4e8129b02d487f-3" source="vjjzR6SspAhX7g16NQRn-106" target="vjjzR6SspAhX7g16NQRn-108">
          <mxGeometry relative="1" as="geometry" />
        </mxCell>
        <mxCell id="ur2h0-PqVUXsRNQ7MQ-a-24" style="edgeStyle=orthogonalEdgeStyle;rounded=0;orthogonalLoop=1;jettySize=auto;html=1;entryX=0;entryY=0.5;entryDx=0;entryDy=0;" edge="1" parent="2b4e8129b02d487f-3" source="vjjzR6SspAhX7g16NQRn-106" target="vjjzR6SspAhX7g16NQRn-147">
          <mxGeometry relative="1" as="geometry" />
        </mxCell>
        <mxCell id="vjjzR6SspAhX7g16NQRn-106" value="Requisição é&lt;br&gt;de outro nível" style="rhombus;whiteSpace=wrap;html=1;" parent="2b4e8129b02d487f-3" vertex="1">
          <mxGeometry x="440" y="177.5" width="105" height="105" as="geometry" />
        </mxCell>
        <mxCell id="ur2h0-PqVUXsRNQ7MQ-a-95" style="edgeStyle=orthogonalEdgeStyle;rounded=0;orthogonalLoop=1;jettySize=auto;html=1;exitX=0.5;exitY=0;exitDx=0;exitDy=0;entryX=0.5;entryY=1;entryDx=0;entryDy=0;" edge="1" parent="2b4e8129b02d487f-3" source="vjjzR6SspAhX7g16NQRn-108" target="vjjzR6SspAhX7g16NQRn-203">
          <mxGeometry relative="1" as="geometry" />
        </mxCell>
        <mxCell id="vjjzR6SspAhX7g16NQRn-108" value="Encaminha para o nível correto" style="rounded=1;whiteSpace=wrap;html=1;" parent="2b4e8129b02d487f-3" vertex="1">
          <mxGeometry x="432.5" y="80" width="120" height="60" as="geometry" />
        </mxCell>
        <mxCell id="vjjzR6SspAhX7g16NQRn-128" value="Não" style="text;html=1;strokeColor=none;fillColor=none;align=center;verticalAlign=middle;whiteSpace=wrap;rounded=0;" parent="2b4e8129b02d487f-3" vertex="1">
          <mxGeometry x="545" y="200" width="60" height="30" as="geometry" />
        </mxCell>
        <mxCell id="ur2h0-PqVUXsRNQ7MQ-a-25" style="edgeStyle=orthogonalEdgeStyle;rounded=0;orthogonalLoop=1;jettySize=auto;html=1;entryX=0;entryY=0.5;entryDx=0;entryDy=0;" edge="1" parent="2b4e8129b02d487f-3" source="vjjzR6SspAhX7g16NQRn-147" target="vjjzR6SspAhX7g16NQRn-185">
          <mxGeometry relative="1" as="geometry" />
        </mxCell>
        <mxCell id="ur2h0-PqVUXsRNQ7MQ-a-27" style="edgeStyle=orthogonalEdgeStyle;rounded=0;orthogonalLoop=1;jettySize=auto;html=1;entryX=0.5;entryY=1;entryDx=0;entryDy=0;" edge="1" parent="2b4e8129b02d487f-3" source="vjjzR6SspAhX7g16NQRn-147" target="vjjzR6SspAhX7g16NQRn-189">
          <mxGeometry relative="1" as="geometry" />
        </mxCell>
        <mxCell id="vjjzR6SspAhX7g16NQRn-147" value="Existe&lt;br&gt;conhecimento&lt;br&gt;dessa&lt;br&gt;requisição?" style="rhombus;whiteSpace=wrap;html=1;" parent="2b4e8129b02d487f-3" vertex="1">
          <mxGeometry x="605" y="170" width="120" height="120" as="geometry" />
        </mxCell>
        <mxCell id="ur2h0-PqVUXsRNQ7MQ-a-62" style="edgeStyle=orthogonalEdgeStyle;rounded=0;orthogonalLoop=1;jettySize=auto;html=1;entryX=0;entryY=0.5;entryDx=0;entryDy=0;" edge="1" parent="2b4e8129b02d487f-3" source="vjjzR6SspAhX7g16NQRn-185" target="vjjzR6SspAhX7g16NQRn-187">
          <mxGeometry relative="1" as="geometry" />
        </mxCell>
        <mxCell id="vjjzR6SspAhX7g16NQRn-185" value="Atende" style="rounded=1;whiteSpace=wrap;html=1;" parent="2b4e8129b02d487f-3" vertex="1">
          <mxGeometry x="780" y="200" width="120" height="60" as="geometry" />
        </mxCell>
        <mxCell id="ur2h0-PqVUXsRNQ7MQ-a-64" value="" style="edgeStyle=orthogonalEdgeStyle;rounded=0;orthogonalLoop=1;jettySize=auto;html=1;" edge="1" parent="2b4e8129b02d487f-3" source="vjjzR6SspAhX7g16NQRn-187" target="ur2h0-PqVUXsRNQ7MQ-a-63">
          <mxGeometry relative="1" as="geometry" />
        </mxCell>
        <mxCell id="vjjzR6SspAhX7g16NQRn-187" value="Atualiza BC" style="rounded=1;whiteSpace=wrap;html=1;" parent="2b4e8129b02d487f-3" vertex="1">
          <mxGeometry x="930" y="200" width="120" height="60" as="geometry" />
        </mxCell>
        <mxCell id="ur2h0-PqVUXsRNQ7MQ-a-58" style="edgeStyle=orthogonalEdgeStyle;rounded=0;orthogonalLoop=1;jettySize=auto;html=1;entryX=0.5;entryY=0;entryDx=0;entryDy=0;" edge="1" parent="2b4e8129b02d487f-3" source="vjjzR6SspAhX7g16NQRn-189" target="vjjzR6SspAhX7g16NQRn-185">
          <mxGeometry relative="1" as="geometry" />
        </mxCell>
        <mxCell id="vjjzR6SspAhX7g16NQRn-189" value="Consulta o BC" style="rounded=1;whiteSpace=wrap;html=1;" parent="2b4e8129b02d487f-3" vertex="1">
          <mxGeometry x="605" y="80" width="120" height="60" as="geometry" />
        </mxCell>
        <mxCell id="ur2h0-PqVUXsRNQ7MQ-a-12" style="edgeStyle=orthogonalEdgeStyle;rounded=0;orthogonalLoop=1;jettySize=auto;html=1;entryX=0.5;entryY=0;entryDx=0;entryDy=0;" edge="1" parent="2b4e8129b02d487f-3" source="ur2h0-PqVUXsRNQ7MQ-a-3" target="ur2h0-PqVUXsRNQ7MQ-a-7">
          <mxGeometry relative="1" as="geometry" />
        </mxCell>
        <mxCell id="ur2h0-PqVUXsRNQ7MQ-a-3" value="Registrar.&lt;br&gt;Analisar.&lt;br&gt;Priorizar." style="rounded=1;whiteSpace=wrap;html=1;" vertex="1" parent="2b4e8129b02d487f-3">
          <mxGeometry x="90" y="115" width="120" height="60" as="geometry" />
        </mxCell>
        <mxCell id="ur2h0-PqVUXsRNQ7MQ-a-17" value="" style="edgeStyle=orthogonalEdgeStyle;rounded=0;orthogonalLoop=1;jettySize=auto;html=1;" edge="1" parent="2b4e8129b02d487f-3" source="ur2h0-PqVUXsRNQ7MQ-a-7" target="ur2h0-PqVUXsRNQ7MQ-a-16">
          <mxGeometry relative="1" as="geometry" />
        </mxCell>
        <mxCell id="ur2h0-PqVUXsRNQ7MQ-a-18" style="edgeStyle=orthogonalEdgeStyle;rounded=0;orthogonalLoop=1;jettySize=auto;html=1;exitX=1;exitY=0.5;exitDx=0;exitDy=0;entryX=0;entryY=0.5;entryDx=0;entryDy=0;" edge="1" parent="2b4e8129b02d487f-3" source="ur2h0-PqVUXsRNQ7MQ-a-7" target="ur2h0-PqVUXsRNQ7MQ-a-14">
          <mxGeometry relative="1" as="geometry" />
        </mxCell>
        <mxCell id="ur2h0-PqVUXsRNQ7MQ-a-20" style="edgeStyle=orthogonalEdgeStyle;rounded=0;orthogonalLoop=1;jettySize=auto;html=1;entryX=0;entryY=0.5;entryDx=0;entryDy=0;" edge="1" parent="2b4e8129b02d487f-3" source="ur2h0-PqVUXsRNQ7MQ-a-7" target="ur2h0-PqVUXsRNQ7MQ-a-13">
          <mxGeometry relative="1" as="geometry" />
        </mxCell>
        <mxCell id="ur2h0-PqVUXsRNQ7MQ-a-7" value="Definir requisição, incidente ou problema.&amp;nbsp;" style="rounded=1;whiteSpace=wrap;html=1;" vertex="1" parent="2b4e8129b02d487f-3">
          <mxGeometry x="90" y="200" width="120" height="60" as="geometry" />
        </mxCell>
        <mxCell id="ur2h0-PqVUXsRNQ7MQ-a-13" value="Problema" style="shape=process;whiteSpace=wrap;html=1;backgroundOutline=1;" vertex="1" parent="2b4e8129b02d487f-3">
          <mxGeometry x="270" y="30" width="120" height="60" as="geometry" />
        </mxCell>
        <mxCell id="ur2h0-PqVUXsRNQ7MQ-a-14" value="Incidente&amp;nbsp;" style="shape=process;whiteSpace=wrap;html=1;backgroundOutline=1;" vertex="1" parent="2b4e8129b02d487f-3">
          <mxGeometry x="270" y="115" width="120" height="60" as="geometry" />
        </mxCell>
        <mxCell id="ur2h0-PqVUXsRNQ7MQ-a-21" style="edgeStyle=orthogonalEdgeStyle;rounded=0;orthogonalLoop=1;jettySize=auto;html=1;entryX=0;entryY=0.5;entryDx=0;entryDy=0;" edge="1" parent="2b4e8129b02d487f-3" source="ur2h0-PqVUXsRNQ7MQ-a-16" target="vjjzR6SspAhX7g16NQRn-106">
          <mxGeometry relative="1" as="geometry" />
        </mxCell>
        <mxCell id="ur2h0-PqVUXsRNQ7MQ-a-16" value="Requisição" style="whiteSpace=wrap;html=1;rounded=1;" vertex="1" parent="2b4e8129b02d487f-3">
          <mxGeometry x="270" y="200" width="120" height="60" as="geometry" />
        </mxCell>
        <mxCell id="ur2h0-PqVUXsRNQ7MQ-a-26" value="Sim" style="text;html=1;strokeColor=none;fillColor=none;align=center;verticalAlign=middle;whiteSpace=wrap;rounded=0;" vertex="1" parent="2b4e8129b02d487f-3">
          <mxGeometry x="620" y="140" width="60" height="30" as="geometry" />
        </mxCell>
        <mxCell id="ur2h0-PqVUXsRNQ7MQ-a-55" value="Não" style="text;html=1;strokeColor=none;fillColor=none;align=center;verticalAlign=middle;whiteSpace=wrap;rounded=0;" vertex="1" parent="2b4e8129b02d487f-3">
          <mxGeometry x="720" y="200" width="60" height="30" as="geometry" />
        </mxCell>
        <mxCell id="ur2h0-PqVUXsRNQ7MQ-a-63" value="Comunica Cliente" style="whiteSpace=wrap;html=1;rounded=1;" vertex="1" parent="2b4e8129b02d487f-3">
          <mxGeometry x="930" y="60" width="120" height="60" as="geometry" />
        </mxCell>
        <mxCell id="vjjzR6SspAhX7g16NQRn-203" value="&lt;font style=&quot;font-size: 20px;&quot;&gt;X&lt;/font&gt;" style="ellipse;whiteSpace=wrap;html=1;aspect=fixed;" parent="2b4e8129b02d487f-3" vertex="1">
          <mxGeometry x="472.5" y="20" width="40" height="40" as="geometry" />
        </mxCell>
        <mxCell id="2b4e8129b02d487f-4" value="N2" style="swimlane;html=1;startSize=20;horizontal=0;fillColor=#d80073;fontColor=#ffffff;strokeColor=#A50040;" parent="2b4e8129b02d487f-1" vertex="1">
          <mxGeometry y="490" width="1100" height="540" as="geometry" />
        </mxCell>
        <mxCell id="vjjzR6SspAhX7g16NQRn-225" style="edgeStyle=orthogonalEdgeStyle;rounded=0;orthogonalLoop=1;jettySize=auto;html=1;entryX=0;entryY=0.5;entryDx=0;entryDy=0;" parent="2b4e8129b02d487f-4" source="vjjzR6SspAhX7g16NQRn-213" target="vjjzR6SspAhX7g16NQRn-217" edge="1">
          <mxGeometry relative="1" as="geometry" />
        </mxCell>
        <mxCell id="vjjzR6SspAhX7g16NQRn-226" style="edgeStyle=orthogonalEdgeStyle;rounded=0;orthogonalLoop=1;jettySize=auto;html=1;entryX=0.5;entryY=0;entryDx=0;entryDy=0;" parent="2b4e8129b02d487f-4" source="vjjzR6SspAhX7g16NQRn-213" target="vjjzR6SspAhX7g16NQRn-216" edge="1">
          <mxGeometry relative="1" as="geometry" />
        </mxCell>
        <mxCell id="vjjzR6SspAhX7g16NQRn-213" value="" style="rhombus;whiteSpace=wrap;html=1;" parent="2b4e8129b02d487f-4" vertex="1">
          <mxGeometry x="665" y="55" width="50" height="50" as="geometry" />
        </mxCell>
        <mxCell id="ur2h0-PqVUXsRNQ7MQ-a-68" value="" style="edgeStyle=orthogonalEdgeStyle;rounded=0;orthogonalLoop=1;jettySize=auto;html=1;" edge="1" parent="2b4e8129b02d487f-4" source="vjjzR6SspAhX7g16NQRn-215" target="vjjzR6SspAhX7g16NQRn-217">
          <mxGeometry relative="1" as="geometry" />
        </mxCell>
        <mxCell id="vjjzR6SspAhX7g16NQRn-215" value="Existe conhecimento dessa requisição?&lt;br&gt;" style="text;html=1;strokeColor=none;fillColor=none;align=center;verticalAlign=middle;whiteSpace=wrap;rounded=0;" parent="2b4e8129b02d487f-4" vertex="1">
          <mxGeometry x="635" y="10" width="110" height="30" as="geometry" />
        </mxCell>
        <mxCell id="vjjzR6SspAhX7g16NQRn-223" style="edgeStyle=orthogonalEdgeStyle;rounded=0;orthogonalLoop=1;jettySize=auto;html=1;entryX=0;entryY=0.5;entryDx=0;entryDy=0;" parent="2b4e8129b02d487f-4" source="vjjzR6SspAhX7g16NQRn-216" target="vjjzR6SspAhX7g16NQRn-220" edge="1">
          <mxGeometry relative="1" as="geometry" />
        </mxCell>
        <mxCell id="vjjzR6SspAhX7g16NQRn-216" value="Atende" style="rounded=1;whiteSpace=wrap;html=1;" parent="2b4e8129b02d487f-4" vertex="1">
          <mxGeometry x="630" y="120" width="120" height="60" as="geometry" />
        </mxCell>
        <mxCell id="vjjzR6SspAhX7g16NQRn-224" style="edgeStyle=orthogonalEdgeStyle;rounded=0;orthogonalLoop=1;jettySize=auto;html=1;entryX=0;entryY=0.5;entryDx=0;entryDy=0;" parent="2b4e8129b02d487f-4" source="vjjzR6SspAhX7g16NQRn-217" edge="1">
          <mxGeometry relative="1" as="geometry">
            <mxPoint x="945" y="80" as="targetPoint" />
          </mxGeometry>
        </mxCell>
        <mxCell id="vjjzR6SspAhX7g16NQRn-217" value="Consulta o BC" style="rounded=1;whiteSpace=wrap;html=1;" parent="2b4e8129b02d487f-4" vertex="1">
          <mxGeometry x="785" y="50" width="120" height="60" as="geometry" />
        </mxCell>
        <mxCell id="vjjzR6SspAhX7g16NQRn-218" value="Atende solicitação usando BC" style="rounded=1;whiteSpace=wrap;html=1;" parent="2b4e8129b02d487f-4" vertex="1">
          <mxGeometry x="932" y="50" width="120" height="60" as="geometry" />
        </mxCell>
        <mxCell id="ur2h0-PqVUXsRNQ7MQ-a-90" style="edgeStyle=orthogonalEdgeStyle;rounded=0;orthogonalLoop=1;jettySize=auto;html=1;" edge="1" parent="2b4e8129b02d487f-4" source="vjjzR6SspAhX7g16NQRn-220">
          <mxGeometry relative="1" as="geometry">
            <mxPoint x="920" y="120" as="targetPoint" />
          </mxGeometry>
        </mxCell>
        <mxCell id="vjjzR6SspAhX7g16NQRn-220" value="Atualiza BC" style="rounded=1;whiteSpace=wrap;html=1;" parent="2b4e8129b02d487f-4" vertex="1">
          <mxGeometry x="785" y="120" width="120" height="60" as="geometry" />
        </mxCell>
        <mxCell id="vjjzR6SspAhX7g16NQRn-227" value="Sim" style="text;html=1;strokeColor=none;fillColor=none;align=center;verticalAlign=middle;whiteSpace=wrap;rounded=0;" parent="2b4e8129b02d487f-4" vertex="1">
          <mxGeometry x="715" y="55" width="60" height="30" as="geometry" />
        </mxCell>
        <mxCell id="vjjzR6SspAhX7g16NQRn-228" value="Não" style="text;html=1;strokeColor=none;fillColor=none;align=center;verticalAlign=middle;whiteSpace=wrap;rounded=0;" parent="2b4e8129b02d487f-4" vertex="1">
          <mxGeometry x="645" y="105" width="60" height="30" as="geometry" />
        </mxCell>
        <mxCell id="WL2loHngfLVMSbmiMG4r-16" value="Recebe solicitação" style="rounded=1;whiteSpace=wrap;html=1;" parent="2b4e8129b02d487f-4" vertex="1">
          <mxGeometry x="110" y="25" width="120" height="60" as="geometry" />
        </mxCell>
        <mxCell id="WL2loHngfLVMSbmiMG4r-1" value="N3" style="swimlane;html=1;startSize=20;horizontal=0;fillColor=#d80073;fontColor=#ffffff;strokeColor=#A50040;" parent="2b4e8129b02d487f-4" vertex="1">
          <mxGeometry y="270" width="1100" height="270" as="geometry" />
        </mxCell>
        <mxCell id="WL2loHngfLVMSbmiMG4r-2" style="edgeStyle=orthogonalEdgeStyle;rounded=0;orthogonalLoop=1;jettySize=auto;html=1;entryX=0;entryY=0.5;entryDx=0;entryDy=0;" parent="WL2loHngfLVMSbmiMG4r-1" source="WL2loHngfLVMSbmiMG4r-3" target="WL2loHngfLVMSbmiMG4r-6" edge="1">
          <mxGeometry relative="1" as="geometry" />
        </mxCell>
        <mxCell id="WL2loHngfLVMSbmiMG4r-3" value="&lt;font style=&quot;font-size: 20px;&quot;&gt;X&lt;/font&gt;" style="ellipse;whiteSpace=wrap;html=1;aspect=fixed;" parent="WL2loHngfLVMSbmiMG4r-1" vertex="1">
          <mxGeometry x="30" y="60" width="40" height="40" as="geometry" />
        </mxCell>
        <mxCell id="WL2loHngfLVMSbmiMG4r-4" style="edgeStyle=orthogonalEdgeStyle;rounded=0;orthogonalLoop=1;jettySize=auto;html=1;entryX=0;entryY=0.5;entryDx=0;entryDy=0;" parent="WL2loHngfLVMSbmiMG4r-1" source="WL2loHngfLVMSbmiMG4r-6" target="WL2loHngfLVMSbmiMG4r-11" edge="1">
          <mxGeometry relative="1" as="geometry" />
        </mxCell>
        <mxCell id="WL2loHngfLVMSbmiMG4r-34" style="edgeStyle=orthogonalEdgeStyle;rounded=0;orthogonalLoop=1;jettySize=auto;html=1;exitX=0.5;exitY=1;exitDx=0;exitDy=0;entryX=0.5;entryY=0;entryDx=0;entryDy=0;" parent="WL2loHngfLVMSbmiMG4r-1" source="WL2loHngfLVMSbmiMG4r-6" target="WL2loHngfLVMSbmiMG4r-33" edge="1">
          <mxGeometry relative="1" as="geometry" />
        </mxCell>
        <mxCell id="WL2loHngfLVMSbmiMG4r-6" value="" style="rhombus;whiteSpace=wrap;html=1;" parent="WL2loHngfLVMSbmiMG4r-1" vertex="1">
          <mxGeometry x="100" y="55" width="50" height="50" as="geometry" />
        </mxCell>
        <mxCell id="WL2loHngfLVMSbmiMG4r-7" value="Existe conhecimento dessa requisição?&lt;br&gt;" style="text;html=1;strokeColor=none;fillColor=none;align=center;verticalAlign=middle;whiteSpace=wrap;rounded=0;" parent="WL2loHngfLVMSbmiMG4r-1" vertex="1">
          <mxGeometry x="70" y="10" width="110" height="30" as="geometry" />
        </mxCell>
        <mxCell id="WL2loHngfLVMSbmiMG4r-36" style="edgeStyle=orthogonalEdgeStyle;rounded=0;orthogonalLoop=1;jettySize=auto;html=1;entryX=0;entryY=0.5;entryDx=0;entryDy=0;" parent="WL2loHngfLVMSbmiMG4r-1" source="WL2loHngfLVMSbmiMG4r-9" target="WL2loHngfLVMSbmiMG4r-13" edge="1">
          <mxGeometry relative="1" as="geometry" />
        </mxCell>
        <mxCell id="WL2loHngfLVMSbmiMG4r-9" value="Atende" style="rounded=1;whiteSpace=wrap;html=1;" parent="WL2loHngfLVMSbmiMG4r-1" vertex="1">
          <mxGeometry x="230" y="150" width="120" height="60" as="geometry" />
        </mxCell>
        <mxCell id="WL2loHngfLVMSbmiMG4r-10" style="edgeStyle=orthogonalEdgeStyle;rounded=0;orthogonalLoop=1;jettySize=auto;html=1;entryX=0;entryY=0.5;entryDx=0;entryDy=0;" parent="WL2loHngfLVMSbmiMG4r-1" source="WL2loHngfLVMSbmiMG4r-11" target="WL2loHngfLVMSbmiMG4r-12" edge="1">
          <mxGeometry relative="1" as="geometry" />
        </mxCell>
        <mxCell id="WL2loHngfLVMSbmiMG4r-11" value="Consulta o BC" style="rounded=1;whiteSpace=wrap;html=1;" parent="WL2loHngfLVMSbmiMG4r-1" vertex="1">
          <mxGeometry x="220" y="50" width="120" height="60" as="geometry" />
        </mxCell>
        <mxCell id="WL2loHngfLVMSbmiMG4r-12" value="Aplica Requisição de contorno" style="rounded=1;whiteSpace=wrap;html=1;" parent="WL2loHngfLVMSbmiMG4r-1" vertex="1">
          <mxGeometry x="380" y="50" width="120" height="60" as="geometry" />
        </mxCell>
        <mxCell id="WL2loHngfLVMSbmiMG4r-39" style="edgeStyle=orthogonalEdgeStyle;rounded=0;orthogonalLoop=1;jettySize=auto;html=1;entryX=0.5;entryY=1;entryDx=0;entryDy=0;" parent="WL2loHngfLVMSbmiMG4r-1" source="WL2loHngfLVMSbmiMG4r-13" target="WL2loHngfLVMSbmiMG4r-38" edge="1">
          <mxGeometry relative="1" as="geometry" />
        </mxCell>
        <mxCell id="WL2loHngfLVMSbmiMG4r-13" value="Atualiza BC" style="rounded=1;whiteSpace=wrap;html=1;" parent="WL2loHngfLVMSbmiMG4r-1" vertex="1">
          <mxGeometry x="390" y="150" width="120" height="60" as="geometry" />
        </mxCell>
        <mxCell id="WL2loHngfLVMSbmiMG4r-14" value="Sim" style="text;html=1;strokeColor=none;fillColor=none;align=center;verticalAlign=middle;whiteSpace=wrap;rounded=0;" parent="WL2loHngfLVMSbmiMG4r-1" vertex="1">
          <mxGeometry x="150" y="55" width="60" height="30" as="geometry" />
        </mxCell>
        <mxCell id="WL2loHngfLVMSbmiMG4r-15" value="Não" style="text;html=1;strokeColor=none;fillColor=none;align=center;verticalAlign=middle;whiteSpace=wrap;rounded=0;" parent="WL2loHngfLVMSbmiMG4r-1" vertex="1">
          <mxGeometry x="80" y="105" width="60" height="30" as="geometry" />
        </mxCell>
        <mxCell id="WL2loHngfLVMSbmiMG4r-35" style="edgeStyle=orthogonalEdgeStyle;rounded=0;orthogonalLoop=1;jettySize=auto;html=1;entryX=0;entryY=0.5;entryDx=0;entryDy=0;" parent="WL2loHngfLVMSbmiMG4r-1" source="WL2loHngfLVMSbmiMG4r-33" target="WL2loHngfLVMSbmiMG4r-9" edge="1">
          <mxGeometry relative="1" as="geometry" />
        </mxCell>
        <mxCell id="WL2loHngfLVMSbmiMG4r-33" value="Aplica Requisição de contorno" style="rounded=1;whiteSpace=wrap;html=1;" parent="WL2loHngfLVMSbmiMG4r-1" vertex="1">
          <mxGeometry x="65" y="150" width="120" height="60" as="geometry" />
        </mxCell>
        <mxCell id="WL2loHngfLVMSbmiMG4r-38" value="Requisição final" style="rounded=1;whiteSpace=wrap;html=1;" parent="WL2loHngfLVMSbmiMG4r-1" vertex="1">
          <mxGeometry x="570" y="50" width="120" height="60" as="geometry" />
        </mxCell>
        <mxCell id="WL2loHngfLVMSbmiMG4r-37" style="edgeStyle=orthogonalEdgeStyle;rounded=0;orthogonalLoop=1;jettySize=auto;html=1;" parent="WL2loHngfLVMSbmiMG4r-1" source="WL2loHngfLVMSbmiMG4r-12" target="WL2loHngfLVMSbmiMG4r-38" edge="1">
          <mxGeometry relative="1" as="geometry">
            <mxPoint x="620" y="80" as="targetPoint" />
          </mxGeometry>
        </mxCell>
        <mxCell id="ur2h0-PqVUXsRNQ7MQ-a-1" value="Atende" style="rounded=1;whiteSpace=wrap;html=1;" vertex="1" parent="2b4e8129b02d487f-4">
          <mxGeometry x="290" y="25" width="120" height="60" as="geometry" />
        </mxCell>
        <mxCell id="ur2h0-PqVUXsRNQ7MQ-a-96" style="edgeStyle=orthogonalEdgeStyle;rounded=0;orthogonalLoop=1;jettySize=auto;html=1;entryX=0;entryY=0.5;entryDx=0;entryDy=0;" edge="1" parent="2b4e8129b02d487f-4" source="ur2h0-PqVUXsRNQ7MQ-a-93" target="WL2loHngfLVMSbmiMG4r-16">
          <mxGeometry relative="1" as="geometry" />
        </mxCell>
        <mxCell id="ur2h0-PqVUXsRNQ7MQ-a-93" value="&lt;font style=&quot;font-size: 20px;&quot;&gt;X&lt;/font&gt;" style="ellipse;whiteSpace=wrap;html=1;aspect=fixed;" vertex="1" parent="2b4e8129b02d487f-4">
          <mxGeometry x="40" y="35" width="40" height="40" as="geometry" />
        </mxCell>
        <mxCell id="ur2h0-PqVUXsRNQ7MQ-a-65" style="edgeStyle=orthogonalEdgeStyle;rounded=0;orthogonalLoop=1;jettySize=auto;html=1;entryX=0.5;entryY=1;entryDx=0;entryDy=0;" edge="1" parent="2b4e8129b02d487f-1" source="ur2h0-PqVUXsRNQ7MQ-a-63" target="vjjzR6SspAhX7g16NQRn-81">
          <mxGeometry relative="1" as="geometry" />
        </mxCell>
        <mxCell id="WL2loHngfLVMSbmiMG4r-41" value="Grupo 11" style="text;html=1;strokeColor=none;fillColor=none;align=center;verticalAlign=middle;whiteSpace=wrap;rounded=0;" parent="1" vertex="1">
          <mxGeometry x="10" y="-840" width="60" height="30" as="geometry" />
        </mxCell>
        <mxCell id="WL2loHngfLVMSbmiMG4r-43" value="Ryan Miranda Barbosa" style="text;html=1;strokeColor=none;fillColor=none;align=center;verticalAlign=middle;whiteSpace=wrap;rounded=0;" parent="1" vertex="1">
          <mxGeometry x="80" y="-840" width="90" height="30" as="geometry" />
        </mxCell>
        <mxCell id="WL2loHngfLVMSbmiMG4r-44" value="Ketelyn Medina" style="text;html=1;strokeColor=none;fillColor=none;align=center;verticalAlign=middle;whiteSpace=wrap;rounded=0;" parent="1" vertex="1">
          <mxGeometry x="230" y="-840" width="60" height="30" as="geometry" />
        </mxCell>
        <mxCell id="WL2loHngfLVMSbmiMG4r-45" value="Marcos Vinícius" style="text;html=1;strokeColor=none;fillColor=none;align=center;verticalAlign=middle;whiteSpace=wrap;rounded=0;" parent="1" vertex="1">
          <mxGeometry x="350" y="-840" width="60" height="30" as="geometry" />
        </mxCell>
        <mxCell id="WL2loHngfLVMSbmiMG4r-46" value="Gustavo Iguchi" style="text;html=1;strokeColor=none;fillColor=none;align=center;verticalAlign=middle;whiteSpace=wrap;rounded=0;" parent="1" vertex="1">
          <mxGeometry x="290" y="-840" width="60" height="30" as="geometry" />
        </mxCell>
        <mxCell id="WL2loHngfLVMSbmiMG4r-47" value="Carlos Augusto" style="text;html=1;strokeColor=none;fillColor=none;align=center;verticalAlign=middle;whiteSpace=wrap;rounded=0;" parent="1" vertex="1">
          <mxGeometry x="170" y="-840" width="60" height="30" as="geometry" />
        </mxCell>
      </root>
    </mxGraphModel>
  </diagram>
</mxfile>
